<svg width="101" height="57" viewBox="0 0 101 57" fill="none" xmlns="http://www.w3.org/2000/svg">
<path d="M97.2213 29.3769C96.8262 29.584 96.5008 29.8959 96.2837 30.2759C96.0619 30.6468 95.9451 31.0676 95.9451 31.4959C95.9451 31.9242 96.0619 32.345 96.2837 32.716C96.5006 33.0941 96.8236 33.4057 97.2156 33.6149C97.5988 33.8261 98.0324 33.9372 98.4737 33.9372C98.915 33.9372 99.3487 33.8261 99.7319 33.6149C100.124 33.4054 100.447 33.094 100.665 32.716C100.886 32.3444 101.002 31.9231 101 31.4948C100.998 31.0664 100.88 30.646 100.657 30.2759C100.44 29.8959 100.114 29.5839 99.7189 29.3769C99.3381 29.1718 98.9092 29.064 98.473 29.064C98.0369 29.064 97.6079 29.1718 97.2271 29.3769H97.2213ZM99.47 29.7957C99.7878 29.9622 100.049 30.2132 100.224 30.5188C100.403 30.8169 100.498 31.1554 100.498 31.5001C100.498 31.8448 100.403 32.1834 100.224 32.4815C100.048 32.786 99.7882 33.0374 99.4729 33.2073C99.1653 33.3798 98.8158 33.4707 98.46 33.4707C98.1042 33.4707 97.7547 33.3798 97.4471 33.2073C97.1314 33.0383 96.8715 32.7867 96.6975 32.4815C96.5191 32.1831 96.4252 31.8446 96.4252 31.5001C96.4252 31.1556 96.5191 30.8172 96.6975 30.5188C96.8728 30.2138 97.1343 29.963 97.4514 29.7957C97.7569 29.6312 98.1008 29.5449 98.4506 29.5449C98.8004 29.5449 99.1443 29.6312 99.4498 29.7957H99.47ZM97.8711 32.8081V31.7472H98.0158C98.1501 31.7417 98.2825 31.7795 98.392 31.8547C98.5494 32.0093 98.6768 32.1899 98.7682 32.3879L98.9911 32.8067H99.6653L99.3499 32.286C99.2356 32.1018 99.1734 31.9971 99.1517 31.9706C99.0974 31.8996 99.0369 31.8332 98.9708 31.7723C98.9135 31.7312 98.8501 31.6988 98.7827 31.676C98.9847 31.6563 99.1731 31.5688 99.3152 31.4289C99.4408 31.2994 99.5089 31.1275 99.5047 30.9501C99.5061 30.8198 99.4711 30.6916 99.4034 30.5788C99.3449 30.4756 99.2584 30.3897 99.1531 30.3303C99.0216 30.2685 98.8782 30.2338 98.732 30.2284C98.6684 30.2284 98.3862 30.2284 97.8754 30.2284H97.3314V32.8081H97.8711ZM98.091 30.6332C98.2847 30.6246 98.4789 30.6368 98.6698 30.6695C98.7424 30.6896 98.806 30.7323 98.8507 30.791C98.8939 30.8459 98.9169 30.9132 98.9158 30.9822C98.9171 31.054 98.8936 31.1242 98.8492 31.1818C98.8049 31.2403 98.7418 31.2829 98.6698 31.3033C98.4765 31.3369 98.2799 31.349 98.0838 31.3396H97.8638V30.6332H98.091Z" fill="#930338"/>
<path d="M69.2803 56.0687L67.0533 46.0681C66.5771 46.7692 66.147 47.4983 65.7655 48.2514C65.4338 48.9032 65.1738 49.5868 64.9899 50.2909C64.8156 50.97 64.7276 51.667 64.728 52.3666C64.74 52.9707 64.7859 53.5737 64.8654 54.173C64.9566 54.9575 65.0102 55.3246 65.0174 55.5145V56.5014C65.0163 56.5907 64.9883 56.6778 64.937 56.7522C64.8856 56.8265 64.813 56.8849 64.728 56.9202C64.5856 56.9759 64.433 57.0029 64.2794 56.9998C64.0332 56.9903 63.788 56.9637 63.5458 56.9202C63.4214 56.9104 63.2477 56.9034 63.0118 56.9034C62.7224 56.9034 62.5083 56.9035 62.3578 56.9202C62.1393 56.9453 61.9975 56.9607 61.9324 56.9607C61.8239 56.968 61.7154 56.9457 61.6194 56.8964C61.5235 56.847 61.4439 56.7725 61.3897 56.6815C61.2449 56.3204 61.186 55.9326 61.2176 55.5466C61.2039 54.7011 61.3409 53.8597 61.6227 53.059C61.8699 52.3333 62.2102 51.6402 62.6356 50.9958C63.0456 50.39 63.6413 49.5836 64.4227 48.5766C65.02 47.8224 65.569 47.0337 66.0664 46.2147C66.3945 45.6775 66.5674 45.0653 66.5671 44.4419C66.5555 43.8695 65.3777 43.9337 65.0159 43.9547V43.1283H70.8474V43.9547H69.7028L72.2915 55.5075L74.5589 43.9547H73.656V43.1283H79.1459V43.9547H77.8176L80.5582 56.0784H81.9604V56.9048H76.5037V56.0784H77.3994L75.0929 45.722L73.0975 56.0784H74.1784V56.9048H68.2225V56.0784L69.2803 56.0687Z" fill="#930338"/>
<path d="M8.60104 55.3235V32.243H6.60562C6.13033 32.2201 5.65836 32.3306 5.24689 32.5613C4.78145 32.9546 4.44586 33.471 4.28173 34.0465C3.86414 35.2422 3.5434 36.4673 3.32237 37.7109C3.2261 38.2202 3.09707 38.7232 2.93602 39.2171C2.89269 39.336 2.80888 39.4374 2.69827 39.5046C2.58766 39.5717 2.45675 39.6008 2.32683 39.587C2.17428 39.5989 2.02222 39.5591 1.89679 39.4745C1.77135 39.3899 1.68037 39.2659 1.63949 39.1236C1.5204 38.7112 1.45765 38.2855 1.45283 37.8574C1.41056 36.7551 1.22883 35.6619 0.911663 34.6021C0.830631 34.3145 0.658433 33.8037 0.396525 33.0666C0.196389 32.5845 0.063076 32.079 4.31898e-05 31.5632C-0.00261465 31.2055 0.117465 30.857 0.341547 30.572C0.457008 30.4256 0.608168 30.309 0.781592 30.2325C0.955017 30.1561 1.14533 30.1221 1.33563 30.1337C1.6171 30.1609 1.89436 30.2195 2.16187 30.3082C2.59483 30.4276 3.03509 30.5209 3.48009 30.5874C4.10549 30.6728 4.73689 30.7106 5.36844 30.7005C5.52906 30.7005 5.72005 30.7005 5.94723 30.6809C6.17441 30.6614 6.34516 30.6628 6.46526 30.6628H15.4179C15.5496 30.6628 15.729 30.6698 15.9504 30.6809C16.1718 30.6921 16.3599 30.7005 16.5089 30.7005C17.1429 30.7106 17.7767 30.6728 18.4045 30.5874C18.8519 30.5212 19.2946 30.4279 19.7299 30.3082C19.9955 30.2196 20.2708 30.1611 20.5504 30.1337C20.7402 30.1212 20.9302 30.1548 21.1031 30.2314C21.276 30.3079 21.4263 30.425 21.5401 30.572C21.7625 30.8576 21.8805 31.2061 21.8758 31.5632C21.8245 32.0648 21.6983 32.5566 21.5011 33.0233C21.2478 33.7101 21.067 34.2364 20.9686 34.5979C20.6379 35.656 20.4435 36.7494 20.3898 37.8533C20.3898 39.0077 20.1076 39.5814 19.5505 39.5814C19.4403 39.5853 19.3311 39.5602 19.2345 39.5088C19.1379 39.4574 19.0576 39.3816 19.0021 39.2897C18.8703 39.0735 18.7769 38.8376 18.7257 38.5917C18.6635 38.3307 18.5202 37.623 18.2829 36.4713C18.102 35.4906 17.7927 34.5361 17.3627 33.6306C17.1408 33.1361 16.7467 32.7322 16.2485 32.4887C15.7121 32.3028 15.1437 32.2184 14.5743 32.2402H13.272V55.3207H15.7738V56.8953H6.09194V55.3207L8.60104 55.3235Z" fill="#930338"/>
<path d="M54.4528 52.4111V53.2166C56.2022 53.2166 55.2529 54.3557 54.3384 55.2756C53.9822 55.5923 53.5623 55.8349 53.1048 55.9883C52.6472 56.1418 52.1619 56.2028 51.6789 56.1676C51.4205 56.1776 51.1631 56.1323 50.925 56.035C51.061 55.702 51.1307 55.3473 51.1305 54.9894C51.1419 54.4707 51.0963 53.9522 50.9944 53.4427C50.9047 53.0435 50.7518 52.4953 50.5357 51.7983C50.3109 51.0663 50.1397 50.32 50.0235 49.5648H59.5969V48.7384C59.4174 47.0954 58.992 44.9205 57.4944 43.8624C56.878 43.4161 56.174 43.0955 55.4251 42.9201C54.7346 42.7535 54.0258 42.6677 53.314 42.6647C52.1978 42.6654 51.0916 42.8675 50.0524 43.2607C48.9797 43.6645 48.0562 44.3678 47.4001 45.2806C46.6456 46.3801 46.2727 47.6823 46.3351 48.9994C46.3273 49.4618 46.3822 49.9231 46.4986 50.3716C46.6378 50.8366 46.8501 51.2782 47.128 51.6811C47.5601 52.3163 48.0292 52.9273 48.5331 53.5112C48.8904 53.9126 49.2024 54.3496 49.4635 54.8149C49.6758 55.2168 49.784 55.6622 49.7789 56.1132C49.7789 56.2179 49.7659 56.3924 49.7413 56.6269C50.2609 56.7707 50.7941 56.8642 51.333 56.906C51.961 56.9661 52.55 56.9954 53.094 56.9954C53.8985 56.9927 54.693 56.8232 55.4237 56.4984C56.194 56.1639 56.8993 55.7045 57.5088 55.1402C58.406 54.3166 58.5637 53.2501 59.8081 53.2166V52.4111H54.4528ZM49.9034 47.8045C49.8987 47.1085 49.9962 46.4152 50.1928 45.7455C50.3589 45.1341 50.6859 44.5744 51.142 44.1206C51.3616 43.9102 51.6236 43.7455 51.9118 43.6367C52.2 43.5279 52.5083 43.4774 52.8176 43.4883C53.1671 43.464 53.5177 43.5139 53.845 43.6345C54.1723 43.7551 54.4682 43.9434 54.7118 44.1862C55.6562 45.5156 56.033 47.1451 55.7638 48.7356H49.9511C49.9146 48.4265 49.8963 48.1156 49.8962 47.8045H49.9034Z" fill="#930338"/>
<path d="M44.1763 44.7826C43.7402 44.1529 43.1246 43.6584 42.4037 43.3588C41.5249 42.9939 40.5747 42.8167 39.6182 42.8395C38.5661 42.8285 37.5329 43.1096 36.6417 43.6491C35.7649 44.1699 35.0851 44.9491 34.7027 45.8714C34.6613 46.843 34.6405 47.8416 34.6405 48.8671V54.772C34.6405 56.3075 33.7188 56.0367 32.949 56.0674V56.8952H39.4967V56.0674C38.9063 55.999 37.7863 56.3326 37.8022 54.7175V52.3291L39.2058 50.5604C39.2955 50.6051 39.4446 50.6749 39.6558 50.7768C39.9417 50.9254 40.2353 51.0596 40.5356 51.1788C40.7924 51.2591 41.0617 51.2955 41.3315 51.2863C41.9573 51.2936 42.5709 51.119 43.0925 50.7852C44.2501 50.2268 44.7797 47.8398 44.7797 46.7774C44.7858 46.0687 44.5754 45.374 44.1748 44.7798L44.1763 44.7826ZM40.7671 49.3753C40.6679 49.5233 40.5341 49.6469 40.3766 49.7363C40.2191 49.8257 40.0422 49.8785 39.8599 49.8904C39.7428 49.8801 39.6289 49.8484 39.5242 49.7969C39.376 49.7342 39.2365 49.654 39.1089 49.5582L37.8066 51.1523V47.3288C37.7988 46.6999 37.8302 46.071 37.9006 45.4457C37.946 44.9971 38.1039 44.5659 38.3608 44.1894C38.4847 44.018 38.6523 43.8804 38.8475 43.7899C39.0427 43.6994 39.2589 43.6591 39.475 43.6729C39.7629 43.6521 40.0502 43.721 40.2946 43.8695C40.5389 44.018 40.7274 44.2383 40.8322 44.4979C41.1023 45.2179 41.2242 45.9817 41.1911 46.7467C41.2425 47.6441 41.0986 48.5418 40.7686 49.3823L40.7671 49.3753Z" fill="#930338"/>
<path d="M26.3778 52.4114V53.2169C28.1258 53.2169 27.178 54.356 26.2621 55.2759C25.9061 55.5926 25.4864 55.8352 25.0291 55.9886C24.5718 56.1421 24.0867 56.2031 23.6039 56.1679C23.346 56.1779 23.089 56.1326 22.8514 56.0353C22.9857 55.7019 23.0549 55.3475 23.0555 54.9898C23.0664 54.471 23.0208 53.9526 22.9195 53.4431C22.8317 53.0438 22.6788 52.4957 22.4608 51.7986C22.2361 51.0666 22.065 50.3203 21.9485 49.5651H31.5205V48.7387C31.3439 47.0957 30.92 44.9208 29.4194 43.8627C28.8043 43.4161 28.1012 43.0955 27.3531 42.9205C25.5685 42.4873 23.688 42.6065 21.9775 43.2611C20.9048 43.6649 19.9813 44.3681 19.3251 45.281C18.5701 46.3802 18.1967 47.6825 18.2587 48.9998C18.2515 49.4621 18.307 49.9234 18.4236 50.372C18.5638 50.8366 18.776 51.2781 19.0531 51.6814C19.4852 52.3173 19.9553 52.9283 20.461 53.5115C20.818 53.9129 21.1294 54.35 21.39 54.8153C21.6027 55.217 21.7109 55.6625 21.7054 56.1135C21.7054 56.2182 21.6924 56.3927 21.6678 56.6272C22.1851 56.7706 22.7159 56.864 23.2523 56.9064C23.8803 56.9664 24.4692 56.9958 25.0133 56.9958C25.8178 56.9931 26.6123 56.8236 27.343 56.4988C28.113 56.1644 28.8178 55.705 29.4266 55.1405C30.3252 54.3169 30.4815 53.2504 31.7245 53.2169V52.4114H26.3778ZM21.8284 47.8049C21.8243 47.1088 21.9217 46.4157 22.1178 45.7458C22.2839 45.135 22.6098 44.5755 23.0642 44.121C23.2842 43.9108 23.5465 43.7463 23.8349 43.6375C24.1234 43.5288 24.4318 43.4781 24.7412 43.4886C25.0909 43.4645 25.4417 43.5145 25.7692 43.6351C26.0966 43.7556 26.3928 43.9438 26.6368 44.1866C27.5816 45.5158 27.9589 47.1452 27.6902 48.7359H21.8834C21.8462 48.4269 21.8279 48.116 21.8284 47.8049Z" fill="#930338"/>
<path d="M100.193 44.9139C99.9937 44.5048 99.5365 44.3052 98.8202 44.3052C98.3094 44.3541 97.9317 44.3792 97.6973 44.3792C96.594 44.3443 95.5142 44.0629 94.5428 43.557C93.4528 43.0435 92.4915 42.3076 91.7255 41.4003L91.7038 32.2652H93.9756L94.0147 30.6208H82.0769C81.5524 30.5734 81.0355 30.4661 80.5373 30.3012C80.2862 30.2257 80.0285 30.1724 79.7674 30.142C79.4816 30.131 79.2006 30.2153 78.9716 30.3807C78.798 30.5301 78.6599 30.7137 78.5665 30.9192C78.4731 31.1246 78.4267 31.3471 78.4304 31.5715C78.5919 32.5116 78.8667 33.4304 79.2494 34.3089C79.5588 35.2269 79.7564 36.1764 79.8384 37.1385C79.8695 37.7783 79.9386 38.4159 80.0453 39.0481C80.0762 39.2062 80.1656 39.3481 80.2968 39.4475C80.428 39.5468 80.5921 39.5969 80.7586 39.5883C80.8769 39.6046 80.9975 39.5831 81.102 39.5272C81.2065 39.4712 81.2892 39.3839 81.3375 39.2785C81.4891 38.8762 81.6038 38.4619 81.6804 38.0403C81.9785 36.562 82.2418 35.5527 82.5486 34.4987C83.2359 32.2052 84.1837 32.2652 85.214 32.2652H87.0213L87.0387 55.3178H84.5252V56.8994H98.8506C99.1569 56.9131 99.4628 56.8656 99.7492 56.7598C99.8847 56.6803 100.002 56.5753 100.095 56.4511C100.188 56.3269 100.254 56.186 100.289 56.0367C100.451 55.4599 100.521 54.8625 100.496 54.2653V46.7593C100.53 46.1318 100.429 45.5042 100.198 44.9167L100.193 44.9139ZM96.2445 53.2113C96.2445 54.1364 96.054 54.7185 95.6729 54.9577C95.2249 55.2131 94.7097 55.3377 94.1897 55.3164H91.7298V43.4719C92.5625 44.4403 93.6112 45.2147 94.7975 45.7375C95.2632 45.8755 95.678 46.1395 95.9927 46.4983C96.1651 46.9154 96.2435 47.3632 96.2228 47.8119C96.2228 48.0687 96.2228 48.2306 96.2344 48.2906C96.2466 48.4299 96.2509 48.5697 96.2474 48.7094V53.2072L96.2445 53.2113Z" fill="#930338"/>
<path d="M32.5427 39.5435C32.5423 38.9541 32.6625 38.3704 32.8964 37.8259C33.1303 37.2814 33.4733 36.7868 33.9058 36.3705C34.3375 35.9532 34.8503 35.6221 35.4148 35.3962C35.9793 35.1703 36.5844 35.0541 37.1956 35.0541C37.8067 35.0541 38.4118 35.1703 38.9763 35.3962C39.5408 35.6221 40.0536 35.9532 40.4853 36.3705C40.9183 36.7871 41.2617 37.2822 41.4958 37.8271C41.73 38.3721 41.8503 38.9563 41.8499 39.5463H40.2278C40.2287 39.1613 40.1507 38.7799 39.9982 38.4242C39.8457 38.0684 39.6218 37.7452 39.3393 37.4733C38.7698 36.926 37.9987 36.6188 37.1948 36.6188C36.391 36.6188 35.6199 36.926 35.0504 37.4733C34.768 37.7453 34.5442 38.0685 34.3917 38.4242C34.2392 38.78 34.1611 39.1613 34.1619 39.5463L32.5427 39.5435Z" fill="#930338"/>
<path d="M58.6409 39.5434C58.64 38.9538 58.7601 38.3699 58.9943 37.8253C59.2285 37.2807 59.5721 36.7862 60.0054 36.3704C60.4369 35.9531 60.9496 35.6221 61.514 35.3962C62.0784 35.1703 62.6834 35.0541 63.2944 35.0541C63.9054 35.0541 64.5104 35.1703 65.0748 35.3962C65.6392 35.6221 66.1518 35.9531 66.5834 36.3704C67.0165 36.7868 67.3598 37.2818 67.5935 37.8269C67.8272 38.372 67.9467 38.9563 67.9451 39.5461H66.3259C66.3264 39.1611 66.248 38.7798 66.0953 38.424C65.9426 38.0683 65.7185 37.7451 65.436 37.4732C64.8666 36.9268 64.0961 36.62 63.293 36.62C62.4898 36.62 61.7193 36.9268 61.1499 37.4732C60.5826 38.0243 60.2643 38.7694 60.2644 39.5461L58.6409 39.5434Z" fill="#930338"/>
<path d="M45.5924 39.5434C45.5915 38.9538 45.7117 38.3698 45.9459 37.8253C46.1801 37.2807 46.5237 36.7862 46.957 36.3704C47.6077 35.7423 48.4369 35.3145 49.3397 35.1412C50.2425 34.968 51.1783 35.057 52.0286 35.397C52.879 35.737 53.6057 36.3127 54.1167 37.0513C54.6278 37.7899 54.9002 38.6581 54.8995 39.5461H53.2774C53.2752 38.9686 53.0962 38.4046 52.7629 37.9248C52.4296 37.4451 51.9568 37.071 51.4039 36.8496C50.851 36.6281 50.2426 36.5692 49.6551 36.6802C49.0676 36.7911 48.5271 37.067 48.1015 37.4732C47.5327 38.0234 47.2137 38.769 47.2145 39.5461L45.5924 39.5434Z" fill="#930338"/>
<path d="M52.346 25.2517L51.4126 26.6212L53.9608 27.1279L51.3432 27.6486L51.9944 28.9482L50.7586 28.2502L50.2464 30.8453L49.7182 28.1637L48.1453 29.0013L49.0815 27.6304L46.5333 27.1237L49.151 26.603L48.4998 25.3034L49.7341 26.0014L50.2464 23.4077L50.7774 26.0921L52.3489 25.2545L52.346 25.2517Z" fill="#930338"/>
<path d="M67.0545 23.7359V20.2461C67.346 20.1745 67.6003 20.0027 67.7698 19.7629C67.9392 19.5232 68.012 19.232 67.9746 18.9441C67.9372 18.6562 67.7921 18.3914 67.5666 18.1994C67.3411 18.0074 67.0507 17.9014 66.7499 17.9014C66.4491 17.9014 66.1587 18.0074 65.9332 18.1994C65.7077 18.3914 65.5626 18.6562 65.5252 18.9441C65.4878 19.232 65.5607 19.5232 65.7301 19.7629C65.8995 20.0027 66.1539 20.1745 66.4453 20.2461V20.3969H59.6169V13.6335H63.1172L55.9762 10.6769L50.2939 2.38083C50.6175 2.37057 50.9241 2.23802 51.1474 2.01173C51.3706 1.78545 51.4928 1.48356 51.4875 1.17118C51.4822 0.858804 51.3498 0.560963 51.1189 0.341871C50.8881 0.122779 50.5772 0 50.2534 0C49.9295 0 49.6186 0.122779 49.3878 0.341871C49.1569 0.560963 49.0245 0.858804 49.0192 1.17118C49.0139 1.48356 49.136 1.78545 49.3593 2.01173C49.5826 2.23802 49.8891 2.37057 50.2128 2.38083L44.5304 10.6769L37.3895 13.6335H40.8898V20.3913H34.0614V20.2405C34.354 20.1689 34.6095 19.9966 34.7797 19.756C34.95 19.5155 35.0233 19.2232 34.9859 18.9342C34.9485 18.6452 34.8029 18.3793 34.5766 18.1865C34.3502 17.9937 34.0587 17.8873 33.7568 17.8873C33.4548 17.8873 33.1633 17.9937 32.937 18.1865C32.7106 18.3793 32.5651 18.6452 32.5277 18.9342C32.4903 19.2232 32.5636 19.5155 32.7338 19.756C32.9041 19.9966 33.1595 20.1689 33.4522 20.2405V23.7304L25.6167 30.5802V33.5117H27.8277V39.5408H29.0388V33.5117C34.5751 33.5117 40.1489 33.5117 45.6794 33.5117C44.2891 32.3033 43.2357 30.7774 42.616 29.074C42.0705 27.1574 42.8939 25.3636 45.1078 23.4372C46 22.6883 46.9358 21.9892 47.9107 21.3433L47.9758 21.2986C48.7951 20.7881 49.5592 20.1993 50.2563 19.5411C50.9533 20.1993 51.7173 20.7881 52.5367 21.2986L52.6018 21.3433C53.5766 21.9893 54.5124 22.6884 55.4047 23.4372C57.6186 25.3636 58.4434 27.1574 57.8964 29.074C57.2766 30.7773 56.2232 32.3032 54.8331 33.5117C60.3592 33.5117 65.9331 33.5117 71.4736 33.5117V39.5408H72.6848V33.5117H74.8973V30.5802L67.0545 23.7359ZM65.308 21.233H66.2818V23.7359H65.308V21.233ZM63.4138 21.233H64.3891V23.7359H63.4138V21.233ZM61.5762 21.233H62.5514V23.7359H61.5762V21.233ZM59.6835 21.233H60.6602V23.7373H60.3925L59.6835 23.0254V21.233ZM42.5177 13.9937H57.9934V20.1051H55.846C53.8202 18.4858 51.4775 16.8428 50.6252 15.0895L50.2548 14.3399L49.8844 15.0895C49.0321 16.8442 46.6865 18.4858 44.6636 20.1051H42.5177V13.9937ZM58.7125 21.233V22.1627L57.7358 21.3531V21.2344L58.7125 21.233ZM41.7985 21.233H42.7738V21.3517L41.7985 22.1613V21.233ZM39.8508 21.233H40.8276V23.0254L40.1185 23.7373H39.8508V21.233ZM37.9596 21.233H38.9349V23.7359H37.9596V21.233ZM36.1219 21.233H37.0957V23.7359H36.1219V21.233ZM34.2292 21.233H35.2031V23.7359H34.2292V21.233ZM26.576 32.7342V31.3648H39.8769C40.3178 31.8546 40.7956 32.3124 41.3065 32.7342H26.576ZM58.1207 32.7342H56.6071C56.6071 32.7342 56.7982 32.5471 56.8488 32.4885C60.5604 28.2741 58.6836 25.1514 55.9936 22.8076C55.0559 22.0196 54.0717 21.2846 53.0461 20.6062C51.7814 19.7366 50.7641 19.0386 50.6802 18.5863L50.2461 16.632L49.812 18.5863C49.7281 19.0386 48.7108 19.7352 47.4462 20.6062C46.4206 21.2847 45.4364 22.0197 44.4986 22.8076C41.8086 25.15 39.9333 28.2727 43.6434 32.4885C43.6955 32.5471 43.8851 32.7342 43.8851 32.7342H42.3715C42.3715 32.7342 42.1487 32.5681 42.0416 32.4843C38.3532 29.631 38.5442 27.283 40.2213 25.1361C41.5311 23.6403 43.0083 22.2887 44.6259 21.106C46.6677 19.4783 49.1117 17.8339 50.236 16.008L50.2447 16.0206L50.2534 16.008C51.3733 17.8339 53.8217 19.4769 55.8619 21.106C57.4791 22.2887 58.9558 23.6403 60.2652 25.1361C61.9422 27.283 62.1333 29.631 58.4448 32.4843C58.3407 32.5667 58.1164 32.7328 58.1164 32.7328L58.1207 32.7342ZM73.9307 32.7342H59.1973C59.708 32.3121 60.1858 31.8544 60.6269 31.3648H73.9278L73.9307 32.7342Z" fill="#930338"/>
</svg>
